<?xml version="1.0" ?><svg viewBox="0 0 512 512" xmlns="http://www.w3.org/2000/svg"><g id="Height"><path d="M315.9922,434.5293l24.0137-192.22c2.2685-16.9707-6.252-33.3589-20.7207-39.8535-21.4971-9.65-56.4795-9.6514-77.98,0-14.4678,6.4946-22.9883,22.8828-20.7276,39.7973l24.0215,192.2759h32.2627V339.5874a3.4457,3.4457,0,0,1,3.3965-3.4336,3.5385,3.5385,0,0,1,2.4522.9927,3.42,3.42,0,0,1,1.0185,2.4409v94.9419Zm-35.874-111.3745a16.4891,16.4891,0,0,0-16.2569,16.4326v81.9419h-7.7861L233.47,240.5864c-1.4873-11.1318,4.0469-22.18,13.16-26.271,18.249-8.1914,49.084-8.1909,67.331,0,9.1133,4.09,14.6475,15.1387,13.1524,26.3262L304.5156,421.5293h-7.7871V339.5874a16.4345,16.4345,0,0,0-16.61-16.4326Z"/><path d="M385.3535,471.1357a3.5,3.5,0,0,0,3.5-3.5V444.9014a3.5,3.5,0,0,0-3.5-3.5H136.1465V404.8857h28.2392v-13H136.1465V353.707h44.2392v-13H136.1465V304.4478h28.2392v-13H136.1465V254.15h44.2392v-13H136.1465V204.2812h28.2392v-13H136.1465V155.63h44.2392v-13H136.1465V106.1152h249.207a3.5,3.5,0,0,0,3.5-3.5V72.4146a3.5,3.5,0,0,0-3.5-3.5H234.9746a25.4864,25.4864,0,0,1-22.4-13.3121v0a28.2165,28.2165,0,0,0-24.8-14.7378h-60.833a3.5,3.5,0,0,0-3.5,3.5L123.1465,471.1Z"/><path d="M281.7148,188.9912A29.448,29.448,0,0,0,311.13,159.5767V142.4014a29.4479,29.4479,0,0,0-29.4151-29.4141h-2.84a29.4477,29.4477,0,0,0-29.4141,29.4141v17.1753a29.4477,29.4477,0,0,0,29.4141,29.4145Zm-19.2539-29.4145V142.4014a16.4326,16.4326,0,0,1,16.4141-16.4141h2.84A16.4329,16.4329,0,0,1,298.13,142.4014v17.1753a16.4333,16.4333,0,0,1-16.4151,16.4145h-2.84A16.4331,16.4331,0,0,1,262.4609,159.5767Z"/></g></svg>