<?xml version="1.0" encoding="iso-8859-1"?>
<!-- Generator: Adobe Illustrator 16.0.0, SVG Export Plug-In . SVG Version: 6.00 Build 0)  -->
<!DOCTYPE svg PUBLIC "-//W3C//DTD SVG 1.1//EN" "http://www.w3.org/Graphics/SVG/1.1/DTD/svg11.dtd">
<svg version="1.1" id="Capa_1" xmlns="http://www.w3.org/2000/svg" xmlns:xlink="http://www.w3.org/1999/xlink" x="0px" y="0px"
	 width="478.125px" height="478.125px" viewBox="0 0 478.125 478.125" style="enable-background:new 0 0 478.125 478.125;"
	 xml:space="preserve">
<g>
	<g>
		<path d="M124.312,239.062H229.5c11.475,0,21.037,5.737,24.862,15.3c1.913,3.825,1.913,7.65,3.825,9.562
			c36.338-5.737,86.062-5.737,86.062-5.737h133.875c0-26.775-1.912-63.112-9.562-91.8l-3.825,1.912
			c-1.912,1.913-5.737,3.825-9.562,7.65c-7.649,5.737-15.3,11.475-26.774,17.212c-28.688,15.3-61.2,24.863-95.625,24.863
			c-55.463,0-91.801-30.601-110.925-68.851c0-1.912-1.913-5.737-5.738-13.387c-3.825,1.913-5.737,3.825-9.562,5.737l19.125,28.688
			l-15.3,9.562l-19.125-28.688c-1.913,1.913-5.737,3.825-7.65,5.738l19.125,30.6l-15.3,9.562L168.3,168.3
			c-1.912,1.913-5.737,3.825-7.65,5.738l17.212,28.687l-15.3,9.562l-17.212-26.774c-3.825,1.912-5.738,3.825-7.65,5.737
			l17.212,26.775l-15.3,9.562l-19.125-30.601c-1.912,0-3.825,0-5.737,0c-7.65,0-13.388,0-19.125,0v9.562
			c0,3.825,1.913,9.562,3.825,15.3C103.275,233.325,110.925,239.062,124.312,239.062z"/>
		<path d="M334.688,200.812c32.513,0,61.2-7.65,86.062-22.95c9.562-5.737,17.213-9.562,22.95-15.3
			c3.825-3.825,5.737-5.737,9.562-7.65l9.562-5.738c-5.737-15.3-13.388-24.862-22.95-24.862c-43.987,0-38.25,38.25-95.625,38.25
			s-47.812-38.25-76.5-38.25c-11.475,0-22.95,1.913-32.513,5.737c1.913,7.65,3.825,13.388,3.825,13.388
			C256.275,175.95,286.875,200.812,334.688,200.812z"/>
		<path d="M344.25,277.312c0,0-57.375,0-89.888,5.737c-28.688,5.737-55.462,13.388-82.237,13.388H24.862h-15.3
			c13.388,22.95,38.25,38.25,66.938,38.25h38.25v19.125h19.125v-19.125h38.25v19.125h19.125v-19.125h38.25v19.125h19.125v-19.125
			h38.25v19.125H306v-19.125h38.25v19.125h19.125v-19.125h38.25v19.125h19.125v-19.125h19.125c21.037,0,38.25-17.213,38.25-38.25
			c0,0,0-7.65,0-19.125H344.25z"/>
		<path d="M172.125,277.312c21.038,0,43.987-3.825,66.938-9.562c0-1.912,0-3.825-1.912-5.737c0-1.913-3.825-3.825-7.65-3.825
			H124.312c-21.038,0-34.425-9.562-42.075-24.862c-3.825-7.65-5.737-17.213-5.737-22.95v-9.562c-13.388,0-19.125,0-19.125,0
			C24.862,200.812,0,225.675,0,258.188c0,5.737,0,13.388,1.913,19.125h22.95H172.125z"/>
	</g>
</g>
<g>
</g>
<g>
</g>
<g>
</g>
<g>
</g>
<g>
</g>
<g>
</g>
<g>
</g>
<g>
</g>
<g>
</g>
<g>
</g>
<g>
</g>
<g>
</g>
<g>
</g>
<g>
</g>
<g>
</g>
</svg>
